<svg xmlns="http://www.w3.org/2000/svg" width="84" height="48" viewBox="0 0 84 48">
  <g id="Group_17" data-name="Group 17" transform="translate(0.178)">
    <rect id="Rectangle_12" data-name="Rectangle 12" width="84" height="48" rx="6" transform="translate(-0.178)" fill="#2c6fd0"/>
    <g id="layer1" transform="translate(8 12)">
      <path id="path3082" d="M9.99,72.284v-10.5H21.105L22.3,63.341l1.232-1.555H63.875v9.774a4.659,4.659,0,0,1-2.275.724H39.26L37.915,70.63v1.655H33.509V69.46a3.7,3.7,0,0,1-1.9.394h-1.5v2.43H23.436L22.245,70.7l-1.209,1.588Z" transform="translate(2.989 -48.031)" fill="#fff"/>
      <path id="path3080" d="M2.226,59.4l2.506-5.844H9.067l1.422,3.273V53.558h5.388l.847,2.366.821-2.366H41.734v1.189A5.218,5.218,0,0,1,45.1,53.558l7.848.027,1.4,3.23V53.558h4.509l1.241,1.856V53.558h4.551v10.5H60.092L58.9,62.194v1.862H52.277L51.611,62.4H49.83l-.655,1.655H44.682a4.441,4.441,0,0,1-2.948-1.165v1.165H34.96L33.615,62.4v1.655H8.425L7.759,62.4H5.983l-.661,1.655h-3.1Z" transform="translate(-2.226 -53.558)" fill="#fff"/>
      <path id="path3046" d="M5.614,54.332l-3.381,7.86h2.2l.624-1.574H8.684L9.3,62.192h2.249l-3.377-7.86H5.614Zm1.251,1.829,1.105,2.75H5.756Z" transform="translate(-2.22 -53.038)" fill="#016fd0"/>
      <path id="path3048" d="M7.949,62.192v-7.86l3.128.012L12.9,59.411l1.776-5.079h3.1v7.86H15.809V56.4l-2.083,5.792H12L9.914,56.4v5.792Z" transform="translate(1.618 -53.038)" fill="#016fd0"/>
      <path id="path3050" d="M14.631,62.192v-7.86h6.412V56.09H16.617v1.345H20.94v1.655H16.617v1.4h4.427v1.707Z" transform="translate(6.106 -53.038)" fill="#016fd0"/>
      <path id="path3052" d="M19.147,54.332v7.86h1.965V59.4h.827L24.3,62.192h2.4l-2.586-2.9a2.394,2.394,0,0,0,2.156-2.414,2.543,2.543,0,0,0-2.747-2.55H19.147Zm1.965,1.758h2.246a.9.9,0,0,1,.931.827.888.888,0,0,1-.9.827H21.112V56.09Z" transform="translate(9.139 -53.038)" fill="#016fd0"/>
      <path id="path3054" d="M25.893,62.192H23.887v-7.86h2.006Z" transform="translate(12.322 -53.038)" fill="#016fd0"/>
      <path id="path3056" d="M29.46,62.192h-.433c-2.1,0-3.368-1.651-3.368-3.9,0-2.3,1.258-3.962,3.9-3.962h2.172v1.862H29.484a1.891,1.891,0,0,0-1.834,2.12,1.924,1.924,0,0,0,2.12,2.162h.517Z" transform="translate(13.513 -53.038)" fill="#016fd0"/>
      <path id="path3058" d="M31.849,54.332l-3.381,7.86h2.2l.624-1.574H34.92l.621,1.574h2.25l-3.377-7.86H31.849ZM33.1,56.161l1.105,2.75H31.992Z" transform="translate(15.4 -53.038)" fill="#016fd0"/>
      <path id="path3060" d="M34.182,62.192v-7.86h2.5l3.19,4.939V54.331h1.965v7.86H39.418l-3.271-5.068v5.068Z" transform="translate(19.237 -53.038)" fill="#016fd0"/>
      <path id="path3062" d="M10.795,70.421V62.56h6.412v1.758H12.781v1.345H17.1v1.655H12.781v1.4h4.427v1.707Z" transform="translate(3.53 -47.512)" fill="#016fd0"/>
      <path id="path3064" d="M29.591,70.421V62.56H36v1.758H31.577v1.345h4.3v1.655h-4.3v1.4H36v1.707Z" transform="translate(16.154 -47.512)" fill="#016fd0"/>
      <path id="path3066" d="M14.81,70.421l3.122-3.882-3.2-3.979h2.476l1.9,2.46,1.91-2.46H23.4l-3.154,3.93,3.128,3.93H20.9L19.053,68l-1.8,2.421Z" transform="translate(6.176 -47.512)" fill="#016fd0"/>
      <path id="path3068" d="M20.045,62.561v7.86h2.017V67.939H24.13c1.75,0,3.077-.929,3.077-2.734a2.587,2.587,0,0,0-2.822-2.644H20.045Zm2.017,1.778H24.24a.887.887,0,0,1,.97.9.907.907,0,0,1-.976.9H22.061v-1.81Z" transform="translate(9.742 -47.511)" fill="#016fd0"/>
      <path id="path3072" d="M24.84,62.56v7.86H26.8V67.628h.827l2.356,2.792h2.4l-2.586-2.9A2.394,2.394,0,0,0,31.96,65.11a2.543,2.543,0,0,0-2.747-2.55H24.84ZM26.8,64.318h2.246a.9.9,0,0,1,.931.827.888.888,0,0,1-.9.827H26.8Z" transform="translate(12.962 -47.512)" fill="#016fd0"/>
      <path id="path3074" d="M34.072,70.421V68.714H38c.582,0,.834-.314.834-.659s-.251-.664-.834-.664H36.228a2.2,2.2,0,0,1-2.405-2.354c0-1.26.788-2.476,3.083-2.476h3.827l-.827,1.769H36.6c-.633,0-.827.332-.827.649a.685.685,0,0,0,.724.685h1.862a2.156,2.156,0,0,1,2.469,2.256,2.357,2.357,0,0,1-2.563,2.5Z" transform="translate(18.995 -47.512)" fill="#016fd0"/>
      <path id="path3076" d="M38.387,70.421V68.714h3.933c.582,0,.834-.314.834-.659s-.251-.664-.834-.664H40.542a2.2,2.2,0,0,1-2.405-2.354c0-1.26.788-2.476,3.083-2.476h3.827l-.827,1.769H40.91c-.633,0-.827.332-.827.649a.685.685,0,0,0,.724.685h1.862a2.156,2.156,0,0,1,2.469,2.256,2.357,2.357,0,0,1-2.563,2.5Z" transform="translate(21.893 -47.512)" fill="#016fd0"/>
    </g>
  </g>
</svg>
