<svg xmlns="http://www.w3.org/2000/svg" width="1287.78" height="213.78" viewBox="0 0 1287.78 213.78"><path d="M901.853,47.8,819.135,0,736.37,47.8a19.638,19.638,0,0,0-9.81,17.03v84.148a19.662,19.662,0,0,0,9.856,17.03l82.728,47.768,82.728-47.768a19.638,19.638,0,0,0,9.81-17.03V64.835a19.638,19.638,0,0,0-9.81-17.03Zm.167,106.941-82.932,47.888L736.2,154.746V59.007l82.886-47.851L902.02,59.007Z" transform="translate(-175.259)" fill="#f2e3d0"/><g transform="translate(572.665 84.306)"><path d="M766.619,90.849c16.6,0,26.942,9.429,26.942,22.571s-10.339,22.571-26.942,22.571H749.58V90.84h17.039Zm0,38.608c11.87,0,19.072-6.673,19.072-16.037s-7.211-16.037-19.072-16.037h-9.244v32.074Z" transform="translate(-749.58 -90.84)" fill="#f2e3d0"/><path d="M838.3,136l-16.529-20.417L810.707,127.11V136H802.92V90.85h7.787V117.8L836.479,90.85h8.956l-18.5,19.276L848.052,136H838.3Z" transform="translate(-753.417 -90.841)" fill="#f2e3d0"/><path d="M899.75,136h-7.786V116.595H865.606V136H857.82V90.85h7.786v19.137h26.357V90.85h7.786Z" transform="translate(-757.366 -90.841)" fill="#f2e3d0"/></g><g transform="translate(798.257 66.725)"><path d="M1505.922,151.4c-.223.937-1.912,6.589-1.912,6.589H1292.94V146.541h202.291a28.2,28.2,0,0,0-27.879-32.269h-51.935l7.638-11.452h44.3a39.587,39.587,0,0,1,38.561,48.594Z" transform="translate(-1137.266 -74.122)" fill="#f2e3d0"/><path d="M1643.006,153.882l-1.244,4.1H1542.32l7.638-11.452h82.979a28.2,28.2,0,0,0-27.833-32.269h-42.533l7.638-11.452h34.9A39.637,39.637,0,0,1,1643,153.882Z" transform="translate(-1155.205 -74.121)" fill="#f2e3d0"/><path d="M1280.9,102.829a39.594,39.594,0,0,0-37.884,51.081l1.234,4.065h33.55l5.717-8.585v26.32a17.737,17.737,0,0,1-17.708,17.717v2.858a29.2,29.2,0,0,0,29.169-29.169v-64.3h-14.069Zm-27.842,43.684a28.138,28.138,0,0,1,27.842-32.232h2.617v32.232Z" transform="translate(-1133.55 -74.122)" fill="#f2e3d0"/><rect width="14.385" height="14.385" transform="translate(35.608 10.18) rotate(-45)" fill="#f2e3d0"/><rect width="14.385" height="14.385" transform="translate(311.791 10.172) rotate(-45)" fill="#f2e3d0"/><path d="M1197.914,157.976h-53.828A18.885,18.885,0,0,1,1125.2,139.09V117.725h2.868V133.02a13.5,13.5,0,0,0,13.5,13.5h56.343a7.438,7.438,0,0,0,7.434-7.434V102.83H1216.8v36.26A18.885,18.885,0,0,1,1197.914,157.976Z" transform="translate(-1125.2 -74.122)" fill="#f2e3d0"/></g><g transform="translate(0 82.041)"><path d="M24.25,89.849c23.629,0,38.348,13.429,38.348,32.13s-14.719,32.13-38.348,32.13H0V89.84H24.25Zm0,54.96c16.891,0,27.155-9.494,27.155-22.83S41.141,99.149,24.25,99.149H11.09v45.661Z" transform="translate(0 -88.504)" fill="#f2e3d0"/><path d="M141.725,154.108,118.2,125.041l-15.759,16.4V154.1H91.35V89.83h11.09V128.2L139.127,89.83h12.752l-26.329,27.434L155.6,154.1H141.716Z" transform="translate(-6.571 -88.503)" fill="#f2e3d0"/><path d="M239.493,154.109H228.4V126.48H190.88v27.629H179.79V89.84h11.09v27.239H228.4V89.84h11.09v64.269Z" transform="translate(-12.933 -88.504)" fill="#f2e3d0"/><path d="M340.515,121.968c0,18.608-15.963,33.383-36.278,33.383s-36.167-14.775-36.167-33.383S283.931,88.4,304.237,88.4s36.278,14.868,36.278,33.568Zm-11.192,0c0-13.624-10.988-23.888-25.086-23.888s-24.974,10.264-24.974,23.888,10.988,23.694,24.974,23.694,25.086-10.172,25.086-23.694Z" transform="translate(-19.283 -88.4)" fill="#f2e3d0"/><path d="M428.256,125.719c0,17.745-11.712,29.735-29.327,29.735s-29.949-11.991-29.949-29.735V89.84h11.09v35.879c0,11.991,7.462,19.851,18.858,19.851s18.237-7.861,18.237-19.851V89.84h11.09v35.879Z" transform="translate(-26.542 -88.504)" fill="#f2e3d0"/><path d="M522.526,154.109H513.06L471.12,107.974v46.134H460.03V89.84h9.355l41.949,46.153V89.84h11.192v64.269Z" transform="translate(-33.091 -88.504)" fill="#f2e3d0"/></g></svg>