<svg xmlns="http://www.w3.org/2000/svg" xmlns:xlink="http://www.w3.org/1999/xlink" width="30" height="30" viewBox="0 0 30 30"><defs><clipPath id="a"><circle cx="15" cy="15" r="15" fill="#e2e2e2"/></clipPath></defs><g clip-path="url(#a)"><g transform="translate(-7.308)"><path d="M0,30H45V0H0Z" fill="#005430"/><g transform="translate(11.25 7.5)"><g transform="translate(0 0)"><g transform="translate(19.745 0.114)"><path d="M.918,1.434C.915.907.711-.512.659-.989S.555-1.9.568-2s.163.136.242.155C.851-1.852.832-2,.758-2.125.707-2.21.535-2.53.43-2.717c-.049-.089-.06-.14-.084-.151a1.124,1.124,0,0,0-.193.415.4.4,0,0,1,.1.253c.008.138.079,1.121.17,1.867C.488.23.638,1.441.643,2.195a2.228,2.228,0,0,1-.058.578c-.084.154-.215.292-.7.578-.549.321-1.282.589-1.6.768-.2.112-.131.127.04.078A12.229,12.229,0,0,0-.2,3.811a1.63,1.63,0,0,0,.859-.869A3.144,3.144,0,0,0,.918,1.434" transform="translate(1.837 2.868)" fill="#fff"/></g><g transform="translate(20.744 0.121)"><path d="M.019.1A2.116,2.116,0,0,1,.507.082C.445.171.023.368.022.4A1.1,1.1,0,0,0,.4.321.709.709,0,0,0,.54.188c.1-.116.22-.331.19-.358A2.22,2.22,0,0,0,.139-.178C.1-.172-.011.021-.031.07S-.024.114.019.1" transform="translate(0.037 0.195)" fill="#fff"/></g><g transform="translate(20.936 2.043)"><path d="M.194.5A1.479,1.479,0,0,0,.185-.368,1.126,1.126,0,0,0-.355-1l-.033.314a1.129,1.129,0,0,1,.433.45,1.1,1.1,0,0,1,.07.815C.1.663.158.619.194.5" transform="translate(0.388 0.996)" fill="#fff"/></g><g transform="translate(18.271 3.768)"><path d="M.175.448a1.333,1.333,0,0,0-.007-.78A1.012,1.012,0,0,0-.32-.9l-.03.283a1.017,1.017,0,0,1,.39.4A.99.99,0,0,1,.1.525C.091.6.142.558.175.448" transform="translate(0.349 0.896)" fill="#fff"/></g><g transform="translate(8.932 0.109)"><path d="M.137.242A1.044,1.044,0,0,1,.2,1.016c-.014.076.04.034.074-.081A1.407,1.407,0,0,0,.27.112a1.069,1.069,0,0,0-.513-.6l-.031.3A1.071,1.071,0,0,1,.137.242" transform="translate(0.274 0.484)" fill="#fff"/></g><g transform="translate(2.565 0.156)"><path d="M.133.26a.948.948,0,0,1-.049.787c-.028.075.04.039.1-.072A1.284,1.284,0,0,0,.3.146,1.067,1.067,0,0,0-.182-.519l-.083.3a1.1,1.1,0,0,1,.4.482" transform="translate(0.265 0.519)" fill="#fff"/></g><g transform="translate(0 0.06)"><path d="M1.575,1.846a1.881,1.881,0,0,0,.21-.6A2.9,2.9,0,0,0,1.817.518c.339-.138.742-.367.878-.384A.488.488,0,0,0,3.27.751c.034.36.064.676.081.864.036.384.031.869.03.953s.06.069.123-.12A4.836,4.836,0,0,0,3.583,1.1C3.576.992,3.564.845,3.549.678c.29-.134.338-.393.446-.5.1.343.636.389.8.316C5,.4,5.071.235,5.124-.145a.571.571,0,0,0-.157-.574c-.005.046-.14.492-.14.492s.128.135.134.2a.566.566,0,0,1-.508.04c-.184-.06-.241-.17-.23-.245s.08-.142.082-.232-.041-.064-.115.016a1.747,1.747,0,0,0-.224.325.7.7,0,0,1-.458.362C3.469-.173,3.424-.613,3.393-.89,3.378-1.036,3.22-2.3,3.209-2.439c-.01-.123-.028-.268-.025-.336s.037-.033.09.024.145.155.161.148c.054-.026,0-.19-.071-.337A6.494,6.494,0,0,0,3-3.692a1.4,1.4,0,0,0-.2.416.492.492,0,0,1,.093.31c0,.055.036.573.085,1.063.043.433.1.843.105.891.039.33.086.8.131,1.253C2.961.192,2.892.02,2.9-.077s.056-.235.032-.263a3.639,3.639,0,0,0-.762.315c-.117.05-.248.1-.387.155-.036-.312-.084-.608-.1-.835l0-.025a.853.853,0,0,0,.6-.287,1.514,1.514,0,0,0,.224-.76,3.272,3.272,0,0,0-.25-.882,1.633,1.633,0,0,1-.08-.307c0-.052.113.06.187.082.05.01.033-.1-.028-.173a4.135,4.135,0,0,0-.412-.537,4.337,4.337,0,0,0-.154.443.311.311,0,0,1,.117.219,3.753,3.753,0,0,0,.157.708,6.706,6.706,0,0,1,.262.76,1.232,1.232,0,0,1-.676.223c-.047-.386-.107-.834-.139-1.152a2.761,2.761,0,0,1-.011-.322c0-.054.041-.047.094.009s.137.137.154.131c.037-.012,0-.135-.068-.281a6.913,6.913,0,0,0-.416-.787,1.339,1.339,0,0,0-.164.406.494.494,0,0,1,.1.309c.005.157.082.926.147,1.6a.735.735,0,0,1-.4-.681,7.646,7.646,0,0,0-.11-1.033,1.1,1.1,0,0,0-.266-.525c-.028.068-.154.487-.154.487A2.953,2.953,0,0,1,.551-2.2a.943.943,0,0,1-.425.931A.8.8,0,0,1-1-1.5c-.146-.369.178-1.295.174-1.513s-.043-.249-.135-.213a1.321,1.321,0,0,0-.439.59,8.048,8.048,0,0,0-.324,1.057c-.091.289-.237.581-.463.565s-.347-.222-.417-.521a2.36,2.36,0,0,1-.008-.794c.047-.253-.062-.2-.129.2a2.068,2.068,0,0,0,.063,1.045c.145.409.393.562.61.509s.408-.561.476-.79.368-1.243.539-1.293c.024.114-.132.483-.182.914s.066,1.01.614,1.11a1,1,0,0,0,1.053-.5,1.922,1.922,0,0,0,.213-.636,1.157,1.157,0,0,0,.682.994l.045.013c.027.271.071.624.111,1C1.4.258,1.309.282,1.224.3A.847.847,0,0,0,1.186.2C1.052-.088.831-.353.524-.335a.817.817,0,0,0-.64.743c.01.206.123.374.534.417A1.879,1.879,0,0,0,1.011.779a.849.849,0,0,1,.049.246A4.473,4.473,0,0,1-.956,2.07c-.808.078-1.054-.345-1.062-.77A1.732,1.732,0,0,1-1.693.43a2.216,2.216,0,0,0,.457-.46l.079.047a.35.35,0,0,1,.135.14c.018-.027.1-.177.068-.25a1.268,1.268,0,0,0-.176-.116c.092-.23.091-.459-.028-.51s-.308.1-.383.2A.256.256,0,0,0-1.6-.366.2.2,0,0,0-1.5-.2c.071.049.137.093.2.132a5.469,5.469,0,0,1-.849.617c-.009-.023-.047,0-.1.061l-.069.043c-.2.125-.692.4-.788.465s-.036.055,0,.04c.068-.037.157-.081.257-.13L-2.375.8a2.382,2.382,0,0,0-.141.278c-.192.454-.5,1.394.169,1.96A2.4,2.4,0,0,0,.318,2.812a3.843,3.843,0,0,0,1.258-.965M-1.412-.39c-.032-.023-.036-.055-.01-.076A.273.273,0,0,1-1.3-.53c.1-.019.142.1.1.28-.077-.047-.157-.1-.214-.14M.69.377C.223.379.2.294.21.24a.239.239,0,0,1,.338-.1A.841.841,0,0,1,.8.372q-.054,0-.106,0M-.739,2.83c-.882.241-1.742-.132-1.794-.87a2.17,2.17,0,0,1,.3-1.228c.126-.063.246-.123.345-.178a1.851,1.851,0,0,0-.276,1.291c.1.478.518.767,1.221.674a4.567,4.567,0,0,0,1.905-1,1.116,1.116,0,0,0,.208-.337A1.024,1.024,0,0,0,1.257.919,1.542,1.542,0,0,0,1.274.71c.082-.024.164-.052.247-.081.028.3.049.6.05.858A5.271,5.271,0,0,1-.739,2.83" transform="translate(3.151 3.693)" fill="#fff"/></g><g transform="translate(17.108 0.114)"><path d="M.241,1.511C.211,1.017.139.124.1-.33c-.036-.4-.106-.957-.157-1.443a2.606,2.606,0,0,1-.013-.308c0-.054.055-.033.109.022s.138.125.154.117c.053-.027-.01-.163-.085-.308a6.63,6.63,0,0,0-.419-.771,1.424,1.424,0,0,0-.172.42.491.491,0,0,1,.1.308c.007.2.107,1.1.179,1.837.05.51.114,1.341.161,1.968,0,0,.044.6.049.663.029.385.014.869.011.953s.059.07.125-.118A4.022,4.022,0,0,0,.255,2Z" transform="translate(0.482 3.022)" fill="#fff"/></g><g transform="translate(14.97 1.96)"><path d="M.12.32C.029.347-.113.252-.1.051A1.955,1.955,0,0,1,.015-.406C.056-.554.057-.7.022-.616A3.424,3.424,0,0,0-.232.15c-.03.237.046.389.151.441C.048.656.142.552.2.4S.254.084.212.124.164.306.12.32" transform="translate(0.239 0.639)" fill="#fff"/></g><g transform="translate(13.75 3.445)"><path d="M.093.068C.141-.06.152-.185.115-.116A3.087,3.087,0,0,0-.169.54c-.045.206.01.345.1.4C.037,1,.127.92.2.79S.264.515.224.547.166.7.127.713C.045.731-.072.638-.047.462A1.744,1.744,0,0,1,.093.068" transform="translate(0.186 0.135)" fill="#fff"/></g><g transform="translate(9.797 6.12)"><path d="M.149.072c.08-.13.12-.265.064-.2A3.569,3.569,0,0,0-.24.539C-.335.756-.3.919-.22.993-.115,1.085,0,1.009.1.88S.239.592.188.62.091.781.046.784c-.093,0-.2-.12-.135-.307A2.012,2.012,0,0,1,.149.072" transform="translate(0.298 0.143)" fill="#fff"/></g><g transform="translate(16.524 1.579)"><path d="M.118.32C.026.344-.109.241-.087.041A1.973,1.973,0,0,1,.058-.41C.108-.555.117-.7.077-.619a3.483,3.483,0,0,0-.3.751C-.267.367-.2.524-.1.581.027.652.126.554.2.4S.267.092.222.13.163.309.118.32" transform="translate(0.237 0.641)" fill="#fff"/></g><g transform="translate(16.713 3.768)"><path d="M.046.407C.172.479.271.38.344.231S.412-.082.367-.044s-.059.18-.1.191C.171.17.035.067.058-.133A1.964,1.964,0,0,1,.2-.583c.05-.145.059-.288.019-.209a3.472,3.472,0,0,0-.3.751C-.122.194-.055.35.046.407" transform="translate(0.092 0.815)" fill="#fff"/></g><g transform="translate(18.101 1.581)"><path d="M.119.093C.179-.083.19-.255.142-.159A4.2,4.2,0,0,0-.221.75c-.054.284.028.473.15.542.152.086.273-.033.36-.213S.372.7.318.746.246.963.192.977C.081,1-.084.88-.056.639A2.389,2.389,0,0,1,.119.093" transform="translate(0.238 0.187)" fill="#fff"/></g><g transform="translate(5.054 4.558)"><path d="M.187.116C.286-.1.322-.314.249-.2A5.4,5.4,0,0,0-.326.9c-.105.351-.027.6.117.7.18.126.347-.011.481-.227S.426.907.352.959s-.119.265-.189.276C.02,1.257-.171,1.082-.1.782A3.078,3.078,0,0,1,.187.116" transform="translate(0.374 0.231)" fill="#fff"/></g><g transform="translate(19.469 5.93)"><path d="M0,.367C.08.3.74-.05.861-.123c0,0,.124-.2.087-.224s-.278.2-.428.2S.165-.247.158-.337A.442.442,0,0,1,.423-.512c.065,0,.055.145.076.163S.608-.452.619-.5.621-.761.5-.731A1.131,1.131,0,0,0,0-.223c-.033.11.143.207.272.259A.643.643,0,0,0,.1.146.5.5,0,0,0,0,.367" transform="translate(0.008 0.734)" fill="#fff"/></g><g transform="translate(17.219 6.37)"><path d="M0,.367C.08.3.74-.05.861-.123c0,0,.124-.2.087-.224s-.278.2-.428.2S.165-.247.158-.337A.441.441,0,0,1,.423-.512c.065,0,.055.144.076.162S.608-.452.619-.5.621-.761.5-.731A1.132,1.132,0,0,0,0-.223c-.033.11.143.206.271.259A.644.644,0,0,0,.1.146.5.5,0,0,0,0,.367" transform="translate(0.008 0.734)" fill="#fff"/></g><g transform="translate(11.961 0.114)"><path d="M.067.329C.126.4.514.89.818,1.2s.824.811,1.206,1.155c.074.067.152.139.232.214.1.74.208,1.682.255,2.072s.053.868.054.952.062.067.119-.122a4.844,4.844,0,0,0,.045-1.348c-.025-.269-.086-.772-.144-1.236.226.223.439.444.583.61a3.208,3.208,0,0,1,.622.86c.1.231.086.415.125.452s.071-.245.03-.514c-.068-.436-.161-.62-.72-1.243-.213-.238-.465-.486-.71-.719l-.026-.2C2.469,1.99,2.28.732,2.265.591,2.252.469,2.23.324,2.232.256s.036-.033.09.022.148.152.164.144c.053-.027-.006-.19-.08-.336a6.483,6.483,0,0,0-.379-.744,1.4,1.4,0,0,0-.186.42.492.492,0,0,1,.1.308c0,.055.051.572.112,1.061.054.432.121.841.128.888v0c-.253-.231-.476-.427-.612-.55A9.389,9.389,0,0,1,.527.4C.521.369.575.389.675.4s.189.05.173,0A.328.328,0,0,0,.707.266C.611.207.367.054.184-.054s-.273-.2-.311-.173A2.131,2.131,0,0,0-.117.2.362.362,0,0,1,.067.329" transform="translate(0.135 0.658)" fill="#fff"/></g><g transform="translate(12.575 0.068)"><path d="M.029.122a2.5,2.5,0,0,1,.559.02C.534.179.171.363.1.406S.009.475.045.471A2.755,2.755,0,0,0,.5.348,1.7,1.7,0,0,0,.853-.034c.07-.09.07-.135.052-.16A1.914,1.914,0,0,0,.148-.217a1.165,1.165,0,0,0-.2.312C-.07.142-.046.139.029.122" transform="translate(0.058 0.244)" fill="#fff"/></g><g transform="translate(14.566 0.11)"><path d="M.023.1a2.013,2.013,0,0,1,.45.016C.43.144.138.292.08.328S.008.383.037.38A2.172,2.172,0,0,0,.4.28,1.375,1.375,0,0,0,.688-.027C.744-.1.744-.137.729-.156a1.532,1.532,0,0,0-.61-.018A.935.935,0,0,0-.042.077C-.057.114-.037.112.023.1" transform="translate(0.047 0.197)" fill="#fff"/></g><g transform="translate(16.171 0.089)"><path d="M.023.1a2.011,2.011,0,0,1,.45.016C.43.144.138.292.08.327S.008.383.037.38A2.351,2.351,0,0,0,.415.28C.5.24.6.045.658-.028S.715-.137.7-.156A1.387,1.387,0,0,0,.119-.175.942.942,0,0,0-.042.077C-.057.114-.037.112.023.1" transform="translate(0.047 0.197)" fill="#fff"/></g><g transform="translate(14.716 1.159)"><path d="M.175,0C.08.152.2.273.242.394.184.447.094.4.063.352,0,.255.021.059-.055.029A.975.975,0,0,0-.087.141.52.52,0,0,1-.044.364.139.139,0,0,1-.163.481C-.329.485-.247.239-.312.1-.325.133-.334.17-.35.2a.551.551,0,0,1,.02.117A1.492,1.492,0,0,0-.32.49c.014.071.053.118.113.122a.194.194,0,0,0,.2-.174C.015.523.179.616.26.513.368.376.282.259.227.13.187.035.2-.027.175,0" transform="translate(0.35 0.005)" fill="#fff"/></g><g transform="translate(10.546 0.362)"><path d="M0,.136A.112.112,0,0,0,.1.245.169.169,0,0,0,.276.1C.291.177.428.264.5.178.6.065.534-.04.492-.153.463-.237.475-.29.454-.265c-.089.125.008.234.04.34C.44.119.365.073.341.031.29-.054.318-.223.255-.252a.846.846,0,0,0-.033.1A.447.447,0,0,1,.248.037a.121.121,0,0,1-.108.1C0,.131.079-.079.03-.2c-.013.029-.023.06-.038.087A.448.448,0,0,1,0-.013c0,.051-.006.1,0,.148" transform="translate(0.008 0.271)" fill="#fff"/></g><g transform="translate(12.005 6.116)"><path d="M.651.151A.25.25,0,0,0,.693.008C.684-.04.626-.239.512-.289s-.2.055-.252.2H.222A.46.46,0,0,0,.193.022C.181.106.157.16.013.291a4.573,4.573,0,0,1-.767.5c-.254.124-.438.23-.505.263s-.048.044.02.024S-.835.944-.7.889A3.264,3.264,0,0,0-.2.612.936.936,0,0,0,.192.2C.224.11.232.074.232.074A.847.847,0,0,0,.455.155c.14.032.18.022.2,0M.461-.132A.207.207,0,0,1,.572,0a.8.8,0,0,1-.259-.06A.12.12,0,0,1,.461-.132" transform="translate(1.301 0.302)" fill="#fff"/></g><g transform="translate(3.916 2.934)"><path d="M2.85,1.258c-.2-.027-.687-.1-.808-.388A2.908,2.908,0,0,1,3.192.362a7.728,7.728,0,0,0,1.356-.51.378.378,0,0,1,.105-.008c.029-.084.176-.381.185-.443-.163.009-1.168.083-1.614.107s-1.306.018-1.593.015A5.057,5.057,0,0,1,2.821-1.06l.215-.074a.692.692,0,0,1,.094.252.481.481,0,0,0,.057-.3c.347-.111.526-.148.6-.169a1.318,1.318,0,0,0,.148-.5A1.345,1.345,0,0,0,3.58-2.17a.813.813,0,0,0-.629-.207c-.293.072-.352.611-.284.725.022.036.073.1.134.179a6.5,6.5,0,0,0-.636.287,3.157,3.157,0,0,0-1.074.729l-.041.02c-.012.023-.1.4-.115.441.091,0,.775,0,1.25-.017s.891-.03,1.054-.03a4.455,4.455,0,0,0-1.055.43.823.823,0,0,0-.3.71A1.691,1.691,0,0,1,1.134.515C.835.111.9-.3.777-.851A3.649,3.649,0,0,0,0-2.516a2.459,2.459,0,0,0-.088.49s.29.641.436,1.05a4.828,4.828,0,0,1,.266.9A4.406,4.406,0,0,1-.817,1.071c-.565.308-1.063.341-1.239.122a.368.368,0,0,1-.071-.151L-1.9.934A6.848,6.848,0,0,0-.274-.041a1,1,0,0,0,.091-1,5.763,5.763,0,0,1-.359-.641c-.013-.048.136.02.223.024.042,0,.021-.06-.07-.151-.073-.072-.355-.305-.462-.4C-.877-2.223-.9-2.214-.9-2.189c-.021.093-.064.293-.08.391l.012.05a.161.161,0,0,1,.084.091,4.029,4.029,0,0,0,.25.534,3.7,3.7,0,0,1,.362.684A7.561,7.561,0,0,1-2.079.586,3.24,3.24,0,0,1-1.845.061a.635.635,0,0,0,.082-.119c.081-.147.088-.328.04-.289s-.072.187-.12.2c-.1.02-.236-.094-.2-.3a2.1,2.1,0,0,1,.176-.469c.061-.151.077-.3.031-.219a3.69,3.69,0,0,0-.356.779c-.059.245,0,.413.107.478a.162.162,0,0,0,.111.028A3.1,3.1,0,0,0-2.2.64c-.325.145-.641.276-.9.369-.941.337-1.612.535-2.081.683L-5.2,1.7c.035-.112.03-.207-.007-.178s-.072.187-.12.2c-.1.02-.236-.094-.2-.3A2.105,2.105,0,0,1-5.353.945c.06-.151.077-.3.031-.219a3.685,3.685,0,0,0-.356.779c-.059.246,0,.413.107.478.129.081.239-.018.323-.172l.03-.063a.791.791,0,0,0,.153-.023c.215-.048.753-.126,1.492-.223a4.189,4.189,0,0,0,1.29-.389c0,.04,0,.082,0,.124.02.5.349.643.8.549a4.489,4.489,0,0,0,1.4-.757A2.993,2.993,0,0,0,.567.413,1.62,1.62,0,0,0,.7-.148a1.966,1.966,0,0,0,.35,1.1A2.27,2.27,0,0,0,2.9,1.763c0-.122-.046-.5-.046-.5M2.782-1.85c.147-.165.462-.057.7.152a4.621,4.621,0,0,0-.466.144,1.607,1.607,0,0,1-.231-.3" transform="translate(5.7 2.516)" fill="#fff"/></g><g transform="translate(6.59 0.056)"><path d="M.007.426A5.481,5.481,0,0,0,.5.175,2.808,2.808,0,0,0,1.027-.21a.643.643,0,0,0,.1-.107c.066.027.111.056.14.067s.1.04.136-.081a.3.3,0,0,0-.084-.293.753.753,0,0,0-.236-.225c-.067-.025-.1.124-.088.12h.045l.009,0a.412.412,0,0,0-.17.241c-.007.055,0,.1.135.129l.053.016A2.458,2.458,0,0,1,.607.02C.41.156.129.325.049.374S-.024.438.007.426M1.195-.529,1.2-.594a.677.677,0,0,1,.154.248c-.042,0-.1-.036-.188-.075a.794.794,0,0,0,.026-.108m-.265,0a.166.166,0,0,1,.11-.1c.075-.03.108.054.115.157l-.022.041L1.065-.458C.993-.479.944-.491.929-.528" transform="translate(0.014 0.852)" fill="#fff"/></g><g transform="translate(10.535 1.867)"><path d="M.335.483C.444.412.742.2.911.055a2.518,2.518,0,0,0,.35-.364c.059.038.114.072.164.1a.354.354,0,0,1,.135.14c.018-.027.1-.177.068-.25a2.292,2.292,0,0,0-.259-.167c.061-.138.146-.377.025-.46-.1-.071-.279.046-.36.2-.067.126-.075.233.052.321l.1.07A6.663,6.663,0,0,1,.656.135C.447.31.249.482.214.523L.2.539C.158.412.171.333.137.375c-.147.23.037.416.1.6C.15,1.06.012.985-.034.913-.133.764-.1.462-.216.415A1.484,1.484,0,0,0-.265.588.8.8,0,0,1-.2.931a.213.213,0,0,1-.183.181C-.64,1.118-.513.738-.612.523c-.02.053-.035.109-.059.158A.827.827,0,0,1-.64.862a2.514,2.514,0,0,0,.014.265c.021.109.082.181.174.188a.3.3,0,0,0,.308-.267c.033.13.287.273.412.113C.434.95.3.77.217.572L.207.546C.219.55.263.531.335.483M1.085-.7c.064-.118.2-.128.237-.066a.271.271,0,0,1-.013.246C1.191-.6,1.085-.669,1.085-.7" transform="translate(0.671 0.966)" fill="#fff"/></g><g transform="translate(6.766)"><path d="M.2.856C-.028.84-.15.633-.219.334A2.36,2.36,0,0,1-.227-.459c.019-.1-.088-.049-.129.2A2.072,2.072,0,0,0-.293.782c.145.409.393.561.61.509S.725.729.793.5s.368-1.161.539-1.211c.024.114-.132.4-.182.832s.037,1,.584,1.1a1,1,0,0,0,1.053-.5A1.92,1.92,0,0,0,3,.081a1.157,1.157,0,0,0,.682.995A.784.784,0,0,0,4.571.9,1.522,1.522,0,0,0,4.81.144a3.247,3.247,0,0,0-.265-.882,1.627,1.627,0,0,1-.08-.307c0-.052.113.06.187.082.05.01.032-.1-.028-.173a4.156,4.156,0,0,0-.412-.537,4.365,4.365,0,0,0-.154.443.311.311,0,0,1,.117.219A3.986,3.986,0,0,0,4.345-.3a6.239,6.239,0,0,1,.248.76A.92.92,0,0,1,3.75.565a.734.734,0,0,1-.478-.718,7.642,7.642,0,0,0-.11-1.033A1.1,1.1,0,0,0,2.9-1.711c-.028.068-.154.487-.154.487a2.96,2.96,0,0,1,.165.876.944.944,0,0,1-.426.931.77.77,0,0,1-1.1-.227c-.146-.369.178-1.2.174-1.418s-.044-.249-.135-.213a1.319,1.319,0,0,0-.439.59A7.208,7.208,0,0,0,.66.29C.569.579.423.872.2.856" transform="translate(0.395 1.711)" fill="#fff"/></g><g transform="translate(0.535 0.127)"><path d="M.09.387A1.04,1.04,0,0,0,.663.1C.724.044.757-.04.713-.008A.9.9,0,0,1-.062.238C-.051.19.062.112.227,0A.991.991,0,0,0,.483-.217l.018,0c.122.027.263.08.307.037a.236.236,0,0,0,0-.305.958.958,0,0,0-.345-.27C.337-.821.311-.71.295-.671S.285-.6.313-.6A.491.491,0,0,0,.23-.41a.136.136,0,0,0,.015.1.162.162,0,0,0,.074.054L.376-.24a1.706,1.706,0,0,1-.268.2A.643.643,0,0,0-.164.248C-.2.365-.188.407.09.387M.581-.432.592-.492V-.53c.088.064.229.185.22.258C.756-.284.65-.307.549-.333a.621.621,0,0,0,.032-.1M.32-.414c-.065-.052,0-.1.056-.136.074-.043.118-.007.155.1a.455.455,0,0,1-.054.093A.768.768,0,0,1,.32-.414" transform="translate(0.18 0.774)" fill="#fff"/></g><g transform="translate(1.539 4.238)"><path d="M.033.062A.457.457,0,0,0-.062.37c.016.014.266.1.3.116L.261.418c.119.107.251.639.28.641s.072-.06.1-.2S.692.53.718.37.782.14.87.124s.153.1.176.173A1.308,1.308,0,0,0,1.121.058C1.106.009.969-.172.857-.112S.674.2.651.363A1.835,1.835,0,0,1,.583.751,1.429,1.429,0,0,0,.349.235C.223.082.075.026.033.062" transform="translate(0.066 0.124)" fill="#fff"/></g><g transform="translate(0.47 3.437)"><path d="M.034.238A2.721,2.721,0,0,0,.486.115,1.7,1.7,0,0,0,.842-.267c.07-.09.07-.136.052-.16A1.91,1.91,0,0,0,.137-.449a1.16,1.16,0,0,0-.2.312c-.018.046.007.044.081.027a2.477,2.477,0,0,1,.558.019C.523-.053.16.13.088.174S0,.243.034.238" transform="translate(0.069 0.477)" fill="#fff"/></g><g transform="translate(13.597 0.09)"><path d="M2.831,1.785A2.429,2.429,0,0,0,2.183.461c-.174-.22-.419-.506-.677-.8-.007-.1-.014-.191-.021-.27-.034-.4-.148-1.228-.2-1.715a2.853,2.853,0,0,1-.011-.322c0-.054.041-.047.094.009s.136.137.154.131c.037-.013,0-.136-.068-.281a6.459,6.459,0,0,0-.4-.759,1.329,1.329,0,0,0-.165.406.493.493,0,0,1,.1.308c.007.2.126,1.361.194,2.094l0,.041C.8-1.127.439-1.52.289-1.679L.2-1.772c-.024-.2-.047-.383-.062-.537a2.64,2.64,0,0,1-.011-.322c0-.054.041-.047.094.009s.136.137.154.131c.037-.012,0-.135-.069-.281A6.565,6.565,0,0,0-.1-3.545a1.538,1.538,0,0,0-.17.433.493.493,0,0,1,.1.309c0,.084.024.337.053.658a5.178,5.178,0,0,1-.524-.687c-.006-.032.048-.012.148,0s.193.046.177,0A.333.333,0,0,0-.46-2.972c-.1-.059-.34-.212-.523-.32s-.273-.2-.311-.173a2.15,2.15,0,0,0,.009.43.289.289,0,0,1,.185.11c.055.072.4.561.679.892.079.1.2.243.349.413.028.3.058.62.083.883.056.6.257,2.183.259,2.7A1.254,1.254,0,0,1-.494,2.3a.583.583,0,0,1-.61-.311c-.039-.072-.075-.144-.111-.21a.418.418,0,0,0-.459-.2l-.028.007-.05.024a1.143,1.143,0,0,0-.378.343,8.8,8.8,0,0,0-.516.886c-.167.287-.3.479-.589.433a.662.662,0,0,1-.46-.427,1.705,1.705,0,0,0,.613-.773,3.518,3.518,0,0,0,.238-1.5C-2.859.044-3.1-1.195-3.163-1.67s-.154-.865-.144-.967.166.133.246.15c.041-.009.019-.156-.059-.28-.053-.084-.219-.469-.328-.654-.051-.088-.064-.138-.087-.149a1.118,1.118,0,0,0-.183.419.4.4,0,0,1,.1.251c.012.138.136,1.147.245,1.89a22.513,22.513,0,0,1,.286,2.333,1.632,1.632,0,0,1-.058.521,1.841,1.841,0,0,1-.652.637c-.069-.45.006-.815-.059-.849-.074.008-.086.218-.094.476a3.008,3.008,0,0,0,.024.462,16.909,16.909,0,0,1-1.615.88c-.2.1-.128.129.041.077A10.421,10.421,0,0,0-3.9,2.97l.053-.03a1.607,1.607,0,0,0,.093.25c.167.347.406.553.664.533.217-.017.375-.249.512-.527a3.862,3.862,0,0,1,.6-1.013,1.007,1.007,0,0,1,.269-.173.377.377,0,0,1,.3.042.321.321,0,0,1,.115.137,1.269,1.269,0,0,0,.263.417.842.842,0,0,0,.928.05.874.874,0,0,0,.508-.6A4.163,4.163,0,0,0,.48.786C.455.337.383-.122.342-.608.329-.765.3-.982.274-1.218c.286.33.582.664.762.847.062.063.128.133.195.207.054.736.105,1.657.133,2.044s.01.869.006.954.044.07.111-.117a4.777,4.777,0,0,0,.127-1.345C1.6,1.113,1.57.64,1.542.193c.222.263.432.53.569.709a3.828,3.828,0,0,1,.545.934c.078.237.087.307.1.349s.082-.131.072-.4" transform="translate(5.661 3.57)" fill="#fff"/></g></g><path d="M24.54,15.076a.187.187,0,0,0-.34,0h-.763a.682.682,0,0,1,.024-.252h1.575l.044.074a.786.786,0,0,0,.148.18Zm1.042-.732H23.69a.443.443,0,0,0,.2-.413.234.234,0,0,0-.228-.18H23.6c-.143.014-.248.117-.232.231l.006.044.007.067a.682.682,0,0,1-.024.252H9.375a1.2,1.2,0,0,0,1,.487l12.763-.008a.443.443,0,0,0-.2.414.249.249,0,0,0,.287.18c.143-.014.247-.117.232-.231l-.006-.044h.75a.184.184,0,0,0,.351,0h.763v0a1,1,0,0,0,.576.178.342.342,0,0,0,.365-.313v-.09a.625.625,0,0,0-.667-.572" transform="translate(-6.563 -0.625)" fill="#fff"/></g></g></g></svg>