<svg xmlns="http://www.w3.org/2000/svg" xmlns:xlink="http://www.w3.org/1999/xlink" width="84" height="48" viewBox="0 0 84 48">
  <defs>
    <clipPath id="clip-path">
      <rect id="Rectangle_21" data-name="Rectangle 21" width="70" height="40" rx="6" transform="translate(-0.294)" fill="#fff"/>
    </clipPath>
  </defs>
  <g id="Group_21" data-name="Group 21" transform="translate(0.294)">
    <g id="Group_14" data-name="Group 14">
      <rect id="Rectangle_17" data-name="Rectangle 17" width="84" height="48" rx="6" transform="translate(-0.294)" fill="#fff"/>
      <g id="Mask_Group_2" data-name="Mask Group 2" transform="translate(7 4)" clip-path="url(#clip-path)">
        <g id="Mada_Logo" transform="translate(0 8.329)">
          <rect id="Rectangle_19" data-name="Rectangle 19" width="29.611" height="9.864" transform="translate(0 13.46)" fill="#84b740"/>
          <rect id="Rectangle_20" data-name="Rectangle 20" width="29.611" height="9.873" fill="#259bd6"/>
          <path id="Path_6" data-name="Path 6" d="M59.221,21.32l-.132.026a4.318,4.318,0,0,1-.958.123c-.774,0-1.688-.4-1.688-2.259,0-.958.158-2.233,1.6-2.233h.009a4.331,4.331,0,0,1,1.055.2l.114.035V21.32Zm.237-9.293-.237.044v3.446l-.211-.062-.062-.018a4.852,4.852,0,0,0-1.31-.229c-2.884,0-3.49,2.18-3.49,4.009,0,2.506,1.407,3.948,3.86,3.948a7.824,7.824,0,0,0,2.576-.36,1.138,1.138,0,0,0,.967-1.248V11.667c-.686.123-1.4.246-2.092.36" fill="#27292d"/>
          <path id="Path_7" data-name="Path 7" d="M67.793,21.382l-.123.035-.44.114a4.582,4.582,0,0,1-1.064.167c-.677,0-1.081-.334-1.081-.906,0-.369.167-.993,1.275-.993h1.433Zm-1.011-6.216a9.729,9.729,0,0,0-2.936.51l-.739.22.246,1.67.721-.237a8.477,8.477,0,0,1,2.4-.4c.317,0,1.284,0,1.284,1.046v.457H66.413c-2.453,0-3.587.782-3.587,2.462,0,1.433,1.046,2.295,2.8,2.295a9.067,9.067,0,0,0,1.952-.264l.035-.009.035.009.22.035c.686.123,1.4.246,2.092.378V17.847c0-1.776-1.073-2.681-3.183-2.681" fill="#27292d"/>
          <path id="Path_8" data-name="Path 8" d="M50.711,21.382l-.123.035-.44.114a4.515,4.515,0,0,1-1.064.167c-.677,0-1.081-.334-1.081-.906,0-.369.167-.993,1.266-.993H50.7l.009,1.583Zm-1-6.216a9.685,9.685,0,0,0-2.936.51l-.739.22.246,1.67L47,17.329a8.477,8.477,0,0,1,2.4-.4c.317,0,1.284,0,1.284,1.046v.457H49.339c-2.453,0-3.6.782-3.6,2.462,0,1.433,1.046,2.295,2.813,2.295a9.067,9.067,0,0,0,1.952-.264l.035-.009.035.009.211.035c.695.123,1.4.246,2.092.387V17.856c.009-1.794-1.064-2.69-3.174-2.69" fill="#27292d"/>
          <path id="Path_9" data-name="Path 9" d="M41.453,15.183a5.933,5.933,0,0,0-2.383.528l-.088.044-.079-.062a3.607,3.607,0,0,0-2.136-.519,8.74,8.74,0,0,0-2.523.378c-.747.229-1.037.589-1.037,1.266v6.269h2.339V17.293l.114-.035a2.976,2.976,0,0,1,1.029-.185.925.925,0,0,1,1.02,1.064V23.1h2.3V18.041a1.7,1.7,0,0,0-.07-.51l-.079-.149.158-.07a2.772,2.772,0,0,1,1.143-.237.931.931,0,0,1,1.02,1.064V23.1h2.295V17.909c0-1.837-.985-2.725-3.024-2.725" fill="#27292d"/>
          <path id="Path_10" data-name="Path 10" d="M66.07,6.436a7.978,7.978,0,0,1-1.363-.123l-.132-.026V2.9a1.655,1.655,0,0,0-.062-.484l-.07-.141.149-.062c.035-.018.07-.026.114-.044l.026-.018.158-.053a.224.224,0,0,1,.062-.018,5.459,5.459,0,0,1,1.2-.141h.009c1.433,0,1.6,1.275,1.6,2.233-.009,1.864-.932,2.259-1.7,2.259M66.061,0H66c-1.345,0-2.725.369-3.218,1.09A2.2,2.2,0,0,0,62.36,2.4h0V5.89a1.032,1.032,0,0,1-.07.44l-.079.149H57.964V4.053h-.009C57.9,1.495,56.39.088,54.2.088H52.065c-.088.624-.158,1.064-.246,1.688h2.128c1.117,0,1.706.95,1.706,2.409V6.629L55.5,6.55a1.614,1.614,0,0,0-.5-.07H51.326c-.07.466-.158,1.073-.255,1.679h11.3c.387-.079.835-.149,1.222-.211a6.363,6.363,0,0,0,2.365.431A3.857,3.857,0,0,0,70,4.2,3.877,3.877,0,0,0,66.061,0" fill="#27292d"/>
          <path id="Path_11" data-name="Path 11" d="M46.253,9.187h.106c2.453,0,3.6-.809,3.6-2.8a2.568,2.568,0,0,0-2.8-2.576H44.891a.974.974,0,0,1-1.081-1.037c0-.44.167-.985,1.275-.985h4.941c.106-.642.158-1.046.255-1.688H45.146c-2.391,0-3.6,1-3.6,2.673,0,1.653,1.046,2.514,2.8,2.514h2.259a1.067,1.067,0,0,1,1.081,1.1,1.1,1.1,0,0,1-1.266,1.134h-.378L38.816,7.5H37.5c-1.117,0-1.9-.633-1.9-2.1V4.387c0-1.53.607-2.479,1.9-2.479h2.145c.1-.651.158-1.064.246-1.679H36.961c-2.189,0-3.7,1.468-3.754,4.027h0V5.4c.053,2.558,1.565,3.78,3.754,3.78H39.1l3.921.009h3.235Z" fill="#27292d"/>
        </g>
      </g>
    </g>
  </g>
</svg>
