<svg id="Group_22" data-name="Group 22" xmlns="http://www.w3.org/2000/svg" xmlns:xlink="http://www.w3.org/1999/xlink" width="84" height="48" viewBox="0 0 84 48">
  <defs>
    <clipPath id="clip-path">
      <rect id="Rectangle_18" data-name="Rectangle 18" width="70" height="40" rx="6" fill="#fff"/>
    </clipPath>
  </defs>
  <g id="Group_13" data-name="Group 13">
    <rect id="Rectangle_8" data-name="Rectangle 8" width="84" height="48" rx="6" fill="#fff"/>
    <g id="Mask_Group_1" data-name="Mask Group 1" transform="translate(7 4)" clip-path="url(#clip-path)">
      <g id="Stc_pay" transform="translate(0 9.667)">
        <path id="Path_2" data-name="Path 2" d="M6.818,20.659a7.19,7.19,0,0,0,5.035-1.809,4.637,4.637,0,0,0,1.39-3.376,4.406,4.406,0,0,0-1.289-3.155,6.663,6.663,0,0,0-3.545-1.728l-2.487-.482C4.914,9.908,4.31,9.4,4.31,8.692c0-.935.906-1.578,2.356-1.578a3.076,3.076,0,0,1,2.2.8,2.349,2.349,0,0,1,.6,1.316l3.585-.8a4.357,4.357,0,0,0-1.329-2.673A7.149,7.149,0,0,0,6.687,3.869,6.958,6.958,0,0,0,1.944,5.537,4.688,4.688,0,0,0,.433,9.013a4.014,4.014,0,0,0,1.158,2.954,6.974,6.974,0,0,0,3.374,1.718l2.447.583c1.229.281,1.772.734,1.772,1.537,0,1-.9,1.578-2.377,1.578a3.348,3.348,0,0,1-2.487-.934,2.218,2.218,0,0,1-.645-1.477L0,15.776a4.578,4.578,0,0,0,1.39,2.834,7.442,7.442,0,0,0,5.418,2.01ZM34,20.619a7.643,7.643,0,0,0,5.478-2.1,7.031,7.031,0,0,0,1.944-3.246l-3.776-1.256A3.646,3.646,0,0,1,36.637,15.7a3.711,3.711,0,0,1-2.628,1,4.032,4.032,0,0,1-2.87-1.156,4.7,4.7,0,0,1-1.158-3.286,4.646,4.646,0,0,1,1.188-3.316,4.033,4.033,0,0,1,2.84-1.125,3.458,3.458,0,0,1,2.548,1,4.089,4.089,0,0,1,1.007,1.708L41.4,9.244a7.311,7.311,0,0,0-1.8-3.185,7.865,7.865,0,0,0-5.65-2.15A8.187,8.187,0,0,0,28.117,6.25a8.778,8.778,0,0,0,.06,12.058,8.328,8.328,0,0,0,5.831,2.351Zm-13.011.04a5.457,5.457,0,0,0,3.384-1V16.218a3.692,3.692,0,0,1-2.155.643,1.8,1.8,0,0,1-2.095-2.12V0h-4.24V4.351h8.51v4.11h-8.51v7.305a4.907,4.907,0,0,0,1.259,3.507,5.3,5.3,0,0,0,3.867,1.387" fill="#4f008c"/>
        <path id="Path_3" data-name="Path 3" d="M45.562,15.254V4.354H47.4v.862A2.953,2.953,0,0,1,49.8,4.136c2.11,0,3.629,1.694,3.629,4.122S51.963,12.43,49.8,12.43a2.952,2.952,0,0,1-2.406-1.1v3.964ZM47.4,7.327V9.308a2.278,2.278,0,0,0,2.091,1.407c1.223,0,2.032-.922,2.032-2.408S50.71,5.92,49.487,5.92a2.219,2.219,0,0,0-2.091,1.4" fill="#03bb86"/>
        <path id="Path_4" data-name="Path 4" d="M54.677,9.6A2.167,2.167,0,0,1,55.3,7.983a2.5,2.5,0,0,1,1.665-.739l3.289-.388V6.469a.571.571,0,0,0-.023-.275.6.6,0,0,0-.152-.238.662.662,0,0,0-.249-.151.7.7,0,0,0-.295-.034H55.374V4.133h4.164c1.666,0,2.592.756,2.592,2.113V11.78H60.256v-.969a3.145,3.145,0,0,1-1.2.9,3.381,3.381,0,0,1-1.515.265,2.774,2.774,0,0,1-1.073-.105,2.643,2.643,0,0,1-.934-.5,2.428,2.428,0,0,1-.633-.813,2.272,2.272,0,0,1-.223-.983Zm3.341.94a2.565,2.565,0,0,0,1.321-.333,2.323,2.323,0,0,0,.917-.946V8.291l-2.509.329c-.7.087-1.041.426-1.041.969s.489.969,1.353.969" fill="#03bb86"/>
        <path id="Path_5" data-name="Path 5" d="M63.689,13.564h1.228a.7.7,0,0,0,.533-.169.877.877,0,0,0,.289-.532l.226-.7L63.373,4.133h1.752l1.607,5.585,1.544-5.585H70L67.156,13.35c-.388,1.272-.9,1.943-2.149,1.943H63.689Z" fill="#03bb86"/>
      </g>
    </g>
  </g>
</svg>
