<svg xmlns="http://www.w3.org/2000/svg" width="84" height="48" viewBox="0 0 84 48">
  <g id="Group_20" data-name="Group 20" transform="translate(-0.411)">
    <g id="Group_15" data-name="Group 15">
      <rect id="Rectangle_10" data-name="Rectangle 10" width="84" height="48" rx="6" transform="translate(0.411)" fill="#65feae"/>
      <g id="Group_11" data-name="Group 11" transform="translate(13 15)">
        <path id="Path_19" data-name="Path 19" d="M68.144,40.61,64.562,54.291v.043h2.805l3.582-13.681H68.144ZM23.866,48.379a2.892,2.892,0,0,1-1.338.3c-.993,0-1.554-.173-1.64-.993V43.243h0V40.7l-2.5.3a3.094,3.094,0,0,0,2.633-2.978V37.2H18.212v3.841l-.173.043v7.078a3.2,3.2,0,0,0,3.539,3.194,5.5,5.5,0,0,0,2.244-.475h0l.043-2.5Z" transform="translate(-16.443 -37.201)" fill="#292929"/>
        <path id="Path_20" data-name="Path 20" d="M24.3,40.092,16.443,41.3v1.985L24.3,42.078Zm0,2.935-7.854,1.208v1.9L24.3,44.926Zm8.8.906a3.48,3.48,0,0,0-3.755-3.539,3.789,3.789,0,0,0-3.107,1.467,6.522,6.522,0,0,0-1.122,4.014,6.522,6.522,0,0,0,1.122,4.014,3.754,3.754,0,0,0,3.107,1.424A3.456,3.456,0,0,0,33.1,47.774V51.1h2.805V40.654l-2.805.432v2.848Zm.173,1.942c0,1.942-1.036,3.237-2.633,3.237-1.64,0-2.633-1.208-2.633-3.237s.993-3.237,2.633-3.237a2.394,2.394,0,0,1,1.942.906,3.834,3.834,0,0,1,.691,2.33Zm10.789-5.481a3.456,3.456,0,0,0-3.755,3.539V37.589l-2.805.432V51.1h2.805V47.774a3.456,3.456,0,0,0,3.755,3.539c2.633,0,4.229-2.028,4.229-5.438S46.7,40.395,44.063,40.395Zm-1.252,8.718c-1.6,0-2.633-1.252-2.633-3.237a3.834,3.834,0,0,1,.691-2.33,2.337,2.337,0,0,1,1.942-.906c1.64,0,2.633,1.208,2.633,3.237s-.993,3.237-2.633,3.237Zm13.076-8.718a3.456,3.456,0,0,0-3.755,3.539V37.589l-2.805.432V51.1h2.805V47.774a3.456,3.456,0,0,0,3.755,3.539c2.633,0,4.229-2.028,4.229-5.438s-1.6-5.481-4.229-5.481Zm-1.252,8.718c-1.6,0-2.633-1.252-2.633-3.237a3.834,3.834,0,0,1,.691-2.33,2.337,2.337,0,0,1,1.942-.906c1.64,0,2.633,1.208,2.633,3.237s-.993,3.237-2.633,3.237Zm5.481-8.5h2.978L65.512,51.1H62.836Zm13.12,1.079v-.82h-.345V40.7H73.8v.173h-.345v.82Zm.6,0V40.654h.345l.173.475c.043.129.086.173.086.216,0-.043.043-.086.086-.216l.173-.475h.345v1.036h-.216v-.82l-.3.82h-.216l-.259-.82v.82Z" transform="translate(-16.443 -37.201)" fill="#292929"/>
      </g>
    </g>
  </g>
</svg>
